<?xml version="1.0" encoding="UTF-8" standalone="no"?>
<svg xmlns="http://www.w3.org/2000/svg" width="48" height="48" viewBox="0 0 48 48">
  <!-- Background circle -->
  <circle cx="24" cy="24" r="22" fill="#3498db" />
  
  <!-- Play button triangle -->
  <polygon points="18,16 18,32 34,24" fill="#ffffff" />
  
  <!-- Film strip top -->
  <rect x="10" y="10" width="28" height="4" fill="#2980b9" />
  <circle cx="14" cy="12" r="1" fill="#ffffff" />
  <circle cx="18" cy="12" r="1" fill="#ffffff" />
  <circle cx="22" cy="12" r="1" fill="#ffffff" />
  <circle cx="26" cy="12" r="1" fill="#ffffff" />
  <circle cx="30" cy="12" r="1" fill="#ffffff" />
  <circle cx="34" cy="12" r="1" fill="#ffffff" />
  
  <!-- Film strip bottom -->
  <rect x="10" y="34" width="28" height="4" fill="#2980b9" />
  <circle cx="14" cy="36" r="1" fill="#ffffff" />
  <circle cx="18" cy="36" r="1" fill="#ffffff" />
  <circle cx="22" cy="36" r="1" fill="#ffffff" />
  <circle cx="26" cy="36" r="1" fill="#ffffff" />
  <circle cx="30" cy="36" r="1" fill="#ffffff" />
  <circle cx="34" cy="36" r="1" fill="#ffffff" />
  
  <!-- Conversion arrow -->
  <path d="M 36,22 L 40,24 L 36,26 Z" fill="#ffffff" />
  <rect x="36" y="23" width="4" height="2" fill="#ffffff" />
</svg>
